<svg version="1.1" id="Layer_1" xmlns="http://www.w3.org/2000/svg" xmlns:xlink="http://www.w3.org/1999/xlink" x="0px" y="0px"
	 width="174px" height="74px" viewBox="0 0 174 74" enable-background="new 0 0 174 74" xml:space="preserve">
<g>
	<g>
		<path fill="#8B2332" d="M86.73,37.182c1.871,0,3.72,0.561,5.076,1.566l-0.514,0.725C90.052,38.537,88.414,38,86.73,38
			c-4.259,0-7.159,2.994-7.159,7.439c0,4.703,2.83,7.861,7.159,7.861c1.871,0,3.673-0.654,4.866-1.754l0.585,0.631
			c-1.381,1.264-3.346,1.943-5.475,1.943c-4.867,0-8.072-3.463-8.072-8.682C78.635,40.502,81.934,37.182,86.73,37.182z"/>
		<path fill="#8B2332" d="M98.967,41.742c3.135,0,5.451,2.34,5.451,6.014c0,3.906-2.199,6.365-5.451,6.365
			c-3.275,0-5.498-2.459-5.498-6.365C93.469,44.082,95.809,41.742,98.967,41.742z M98.967,53.348c2.714,0,4.539-2.199,4.539-5.592
			c0-3.158-1.918-5.24-4.539-5.24c-2.644,0-4.586,2.082-4.586,5.24C94.381,51.148,96.206,53.348,98.967,53.348z"/>
		<path fill="#8B2332" d="M106.758,42.023h0.818l0.094,1.824c1.1-1.17,2.62-2.129,4.492-2.129c2.69,0,3.65,1.592,3.65,3.885v8.236
			h-0.914v-8.236c0-1.848-0.725-3.111-2.854-3.111c-1.778,0-3.205,0.889-4.375,2.316v9.031h-0.912V42.023z"/>
		<path fill="#8B2332" d="M123.533,41.719c3.205,0,4.586,2.199,4.586,5.102c0,0.211-0.023,0.561-0.047,0.748h-9.078v0.188
			c0,3.463,1.497,5.592,4.586,5.592c1.355,0,2.736-0.562,3.625-1.193l0.469,0.678c-1.006,0.727-2.55,1.289-4.117,1.289
			c-3.627,0-5.476-2.412-5.476-6.365C118.081,44.059,120.397,41.719,123.533,41.719z M119.041,46.867h8.188
			c0.069-2.387-0.96-4.375-3.673-4.375C121.146,42.492,119.367,44.152,119.041,46.867z"/>
		<path fill="#8B2332" d="M133.195,47.85l-4.07-5.826h1.053l3.557,5.17l3.556-5.17h1.052l-4.047,5.826l4.281,5.99h-1.053
			l-3.789-5.359l-3.791,5.359h-1.076L133.195,47.85z"/>
		<path fill="#8B2332" d="M140.027,42.023h0.912v8.236c0,1.848,0.702,3.088,2.854,3.088c1.755,0,3.205-0.865,4.375-2.293v-9.031
			h0.913V53.84h-0.748l-0.141-1.826c-1.123,1.146-2.668,2.107-4.516,2.107c-2.715,0-3.65-1.568-3.65-3.885V42.023z"/>
		<path fill="#8B2332" d="M151.445,52.342c0.771,0.49,2.198,1.006,3.695,1.006c2.176,0,3.252-0.982,3.252-2.387
			c0-3.791-7.252-1.451-7.252-6.035c0-1.85,1.521-3.184,3.93-3.184c1.404,0,2.785,0.352,3.697,0.82l-0.375,0.748
			c-0.818-0.422-2.105-0.795-3.322-0.795c-1.895,0-3.041,1.006-3.041,2.387c0,3.789,7.254,1.379,7.254,6.035
			c0,1.918-1.404,3.184-4.118,3.184c-1.731,0-3.276-0.516-4.165-1.078L151.445,52.342z"/>
	</g>
	<g>
		<path fill="#00548E" d="M20,10.732v52.535h52.462V10.732H20z M61.18,36.785l4.045,9.008h-2.818l-1.227-2.992l-1.229,2.992h-2.817
			L61.18,36.785z M37.984,53.812c-1.062,0.363-2.689,0.793-5.284,0.793c-5.325,0-8.89-3.441-8.89-8.795
			c0-5.197,3.783-8.656,8.914-8.656c2.436,0,3.521,0.363,5.061,0.895l-0.231,2.91c-1.417-0.926-2.623-1.297-4.712-1.297
			c-3.668,0-6.117,2.654-6.101,6.219c0.019,3.834,2.685,6.219,5.983,6.219c0.982,0,1.818-0.072,2.419-0.23V47.5h-3.173v-2.461h6.014
			V53.812z M45.49,54.605c-1.187-0.039-2.342-0.338-3.6-0.748l0.286-2.654c1.063,0.438,2.444,0.914,3.601,0.896
			c1.508-0.025,3.016-0.725,3.016-2.471c0-1.346-1.077-2.008-2.119-2.535c-2.304-1.168-4.953-1.979-4.953-5.244
			c0-3.086,2.455-4.695,5.498-4.695c1.107,0,2.427,0.193,3.753,0.664l-0.397,2.611c-1.444-0.566-2.074-0.768-3.261-0.768
			c-1.312,0-2.661,0.461-2.661,1.977c0,1.184,1.214,1.797,2.117,2.248c2.448,1.221,4.955,2.223,4.955,5.602
			C51.725,53.174,48.829,54.713,45.49,54.605z M56.211,54.311h-2.889l3.766-8.41l2.007,1.879l-1.483,3.389l3.562-1.867l2.052,1.578
			L56.211,54.311z M66.078,54.309l-2.814-6.529l2.008-1.881l3.764,8.41H66.078z"/>
		<g>
			<path fill="#00548E" d="M78.199,12.643c0,1.059-0.856,1.916-1.91,1.916c-1.059,0-1.915-0.857-1.915-1.916
				c0-1.053,0.856-1.91,1.915-1.91C77.343,10.732,78.199,11.59,78.199,12.643z M74.69,12.643c0,0.883,0.716,1.598,1.599,1.598
				c0.877,0,1.594-0.715,1.594-1.598c0-0.877-0.717-1.594-1.594-1.594C75.406,11.049,74.69,11.766,74.69,12.643z M75.448,13.701
				v-2.055h0.706c0.316,0,0.415,0.01,0.561,0.066c0.182,0.078,0.321,0.281,0.321,0.473c0,0.332-0.238,0.57-0.587,0.598
				c0.156,0.062,0.271,0.186,0.479,0.52l0.249,0.398h-0.405l-0.182-0.322c-0.265-0.461-0.357-0.549-0.612-0.549H75.78v0.871H75.448z
				 M75.78,12.545h0.405c0.342,0,0.498-0.094,0.498-0.312c0-0.229-0.141-0.305-0.523-0.305h-0.38V12.545z"/>
		</g>
	</g>
</g>
</svg>